<?xml version="1.0" encoding="UTF-8" ?>
<!DOCTYPE svg PUBLIC "-//W3C//DTD SVG 1.1//EN" "http://www.w3.org/Graphics/SVG/1.1/DTD/svg11.dtd">
<svg width="706pt" height="707pt" viewBox="0 0 706 707" version="1.1" xmlns="http://www.w3.org/2000/svg">
<g id="#117fe9ff">
<path fill="#117fe9" opacity="1.00" d=" M 187.47 0.00 L 518.53 0.00 C 554.19 3.10 589.49 14.43 618.89 35.13 C 646.93 54.23 670.06 80.51 685.03 110.98 C 697.30 134.70 703.17 161.15 706.00 187.56 L 706.00 519.53 C 703.46 548.68 695.27 577.41 681.15 603.09 C 653.40 654.00 602.39 691.30 545.52 702.47 C 535.21 704.31 524.83 705.72 514.44 707.00 L 191.48 707.00 C 166.27 704.87 141.15 699.41 118.08 688.86 C 84.30 673.52 54.47 649.04 34.10 617.91 C 13.87 589.02 3.47 554.36 0.00 519.51 L 0.00 187.56 C 2.75 162.64 7.90 137.63 19.05 115.02 C 34.50 81.77 59.56 53.31 90.08 33.08 C 118.89 13.67 153.00 3.00 187.47 0.00 M 305.20 179.42 C 305.06 187.07 305.01 194.72 305.02 202.37 C 291.06 206.58 276.06 206.50 262.61 212.54 C 242.26 220.72 222.15 231.88 208.84 249.84 C 219.50 251.48 230.06 253.90 240.76 255.20 C 251.95 249.22 262.15 240.88 274.58 237.45 C 284.65 234.64 295.40 230.77 305.96 233.30 C 306.05 240.61 306.28 247.92 306.74 255.23 C 323.73 242.99 340.20 230.01 356.34 216.68 C 345.97 207.57 334.47 199.90 323.56 191.48 C 317.57 187.26 311.68 182.86 305.20 179.42 M 434.15 224.16 C 426.20 233.46 418.68 243.82 415.34 255.78 C 429.03 258.60 443.02 259.85 456.98 260.23 C 457.02 243.23 457.10 226.23 456.81 209.24 C 448.38 212.68 440.03 217.00 434.15 224.16 M 469.13 209.18 C 468.86 226.09 468.85 243.01 469.33 259.92 C 479.99 259.82 490.64 258.96 501.18 257.36 C 504.54 256.70 508.48 256.57 511.25 254.20 C 503.64 234.84 489.93 215.38 469.13 209.18 M 410.72 218.73 C 398.17 225.35 385.45 232.63 376.31 243.74 C 384.84 247.74 393.87 250.58 402.88 253.32 C 408.82 238.03 418.21 224.44 429.14 212.30 C 422.62 213.11 416.65 216.10 410.72 218.73 M 497.64 212.61 C 507.16 224.76 516.52 237.09 523.06 251.17 C 532.35 249.38 541.64 247.31 550.49 243.89 C 536.46 228.64 517.78 217.53 497.64 212.61 M 366.39 253.66 C 351.05 274.38 340.33 299.06 339.77 325.12 C 356.11 326.09 372.48 324.97 388.84 325.14 C 390.01 304.52 392.65 283.97 398.27 264.05 C 387.42 261.27 377.16 256.66 366.39 253.66 M 539.45 260.54 C 525.76 261.64 512.08 265.66 501.11 274.16 C 473.73 292.89 462.34 331.60 476.07 361.97 C 488.12 392.57 522.92 410.62 554.97 406.05 C 584.03 403.92 609.89 381.72 617.88 353.95 C 623.18 338.51 621.17 321.41 615.68 306.31 C 604.06 276.50 571.28 256.64 539.45 260.54 M 109.27 311.26 C 88.39 336.44 85.66 373.28 98.11 402.90 C 104.70 417.87 115.29 430.79 127.89 441.13 C 134.19 445.00 130.85 453.13 130.97 458.97 C 130.45 469.87 125.21 479.62 121.94 489.82 C 130.27 489.28 138.52 487.58 146.24 484.31 C 157.48 480.20 166.43 472.01 175.16 464.13 C 221.80 476.44 275.78 458.47 302.95 417.97 C 321.74 390.77 322.56 353.47 307.64 324.36 C 289.58 290.58 252.87 268.62 214.96 266.06 C 175.20 261.98 132.93 278.44 109.27 311.26 M 409.83 266.85 C 404.08 285.35 401.52 304.54 400.08 323.79 C 400.79 324.41 401.51 325.03 402.24 325.65 C 420.73 324.70 439.25 325.22 457.75 324.66 C 456.50 307.25 457.30 289.78 456.67 272.36 C 440.94 271.61 425.31 269.71 409.83 266.85 M 469.08 272.41 C 469.30 278.51 469.58 284.62 470.23 290.70 C 475.71 284.53 480.69 277.94 485.60 271.32 C 480.09 271.61 474.58 272.01 469.08 272.41 M 339.81 337.71 C 341.24 363.65 350.50 389.16 367.16 409.21 C 377.60 405.17 388.17 401.52 398.86 398.19 C 392.40 378.68 389.46 358.14 388.73 337.64 C 372.42 338.11 356.11 337.26 339.81 337.71 M 402.21 337.18 C 401.55 337.86 400.89 338.54 400.23 339.23 C 401.62 358.54 404.50 377.80 410.86 396.16 C 425.95 392.34 441.43 390.52 456.96 389.80 C 456.83 372.65 457.60 355.49 456.70 338.37 C 456.43 338.10 455.89 337.55 455.62 337.27 C 437.83 335.95 420.01 338.16 402.21 337.18 M 469.81 375.40 C 469.35 380.17 469.31 384.95 469.17 389.75 C 472.85 389.97 476.55 390.22 480.24 390.26 C 477.02 385.13 473.53 380.17 469.81 375.40 M 414.80 407.59 C 420.68 419.35 426.39 431.72 436.19 440.81 C 442.04 446.68 449.17 451.81 457.47 453.34 C 456.88 436.26 457.13 419.17 456.66 402.09 C 442.59 402.62 428.43 403.88 414.80 407.59 M 469.67 401.79 C 468.37 418.90 468.89 436.12 469.48 453.25 C 481.13 451.10 489.81 441.73 497.01 433.00 C 501.52 426.13 507.09 419.30 509.03 411.18 C 498.46 401.44 482.97 402.83 469.67 401.79 M 376.25 418.73 C 390.48 433.53 408.59 444.87 428.53 450.07 C 424.11 442.51 417.48 436.53 413.02 428.99 C 409.00 423.05 406.49 416.29 403.61 409.78 C 394.21 411.75 384.75 414.16 376.25 418.73 M 520.79 415.23 C 515.22 427.70 506.34 438.14 498.52 449.19 C 507.46 447.26 515.84 443.31 523.72 438.74 C 532.97 433.26 542.13 427.34 549.39 419.29 C 539.84 418.12 530.26 416.97 520.79 415.23 M 345.02 477.96 C 321.51 479.64 298.23 472.55 277.97 460.99 C 268.81 466.34 259.17 470.79 249.59 475.31 C 268.00 491.84 292.56 499.55 316.53 503.57 C 340.48 506.83 365.21 505.09 388.13 497.21 C 406.86 490.63 425.38 481.22 438.71 466.19 C 428.51 462.58 417.69 460.86 407.84 456.25 C 389.14 468.61 367.39 476.38 345.02 477.96 Z" />
<path fill="#117fe9" opacity="1.00" d=" M 530.16 295.08 C 530.65 290.24 537.37 288.42 541.05 290.93 C 547.24 293.74 547.33 301.77 552.03 305.95 C 560.60 307.75 569.65 306.42 578.34 307.79 C 582.65 309.06 585.12 314.73 582.65 318.65 C 580.15 323.05 573.86 321.38 569.85 322.92 C 567.21 333.84 561.67 343.62 555.53 352.90 C 562.56 356.76 570.16 359.25 577.87 361.35 C 582.73 362.76 583.93 369.17 580.94 372.90 C 578.60 377.74 572.52 376.72 568.16 375.82 C 559.04 373.50 550.70 368.86 542.77 363.93 C 534.04 368.71 525.40 374.35 515.52 376.37 C 511.27 378.22 505.49 376.29 504.35 371.60 C 503.93 369.03 503.14 363.99 506.45 362.66 C 514.45 359.80 522.49 357.01 530.29 353.62 C 525.72 346.34 519.67 339.83 517.06 331.48 C 518.49 329.84 521.36 326.55 522.79 324.90 C 531.52 327.81 536.11 336.13 541.58 342.88 C 546.64 337.18 550.10 330.32 552.56 323.15 C 537.15 322.73 521.69 323.71 506.32 322.57 C 500.71 319.96 500.88 311.07 506.43 308.56 C 515.10 307.15 523.90 307.00 532.67 306.53 C 531.52 302.80 530.30 299.01 530.16 295.08 Z" />
<path fill="#117fe9" opacity="1.00" d=" M 181.45 321.48 C 192.55 320.45 205.17 319.54 214.85 326.15 C 226.86 344.53 232.10 366.37 239.07 386.98 C 240.59 394.36 246.88 404.67 237.65 409.61 C 232.62 411.35 224.39 413.44 221.47 407.61 C 218.46 402.80 218.79 396.22 215.24 391.91 C 206.41 390.83 197.16 391.60 188.25 392.35 C 183.31 397.18 185.34 406.24 179.70 410.70 C 174.72 413.60 168.39 410.94 164.38 407.64 C 160.95 403.37 161.98 397.14 163.54 392.33 C 168.69 374.60 174.71 357.07 183.29 340.67 C 180.96 339.41 178.25 338.59 176.44 336.56 C 173.92 331.38 175.81 323.72 181.45 321.48 M 192.01 372.68 C 197.99 372.76 203.97 372.72 209.95 372.63 C 208.39 363.22 205.47 354.12 201.69 345.38 C 196.88 353.82 194.52 363.37 192.01 372.68 Z" />
</g>
<g id="#ffffffff">
<path fill="#ffffff" opacity="1.00" d=" M 305.20 179.42 C 311.68 182.86 317.57 187.26 323.56 191.48 C 334.47 199.90 345.97 207.57 356.34 216.68 C 340.20 230.01 323.73 242.99 306.74 255.23 C 306.28 247.92 306.05 240.61 305.96 233.30 C 295.40 230.77 284.65 234.64 274.58 237.45 C 262.15 240.88 251.95 249.22 240.76 255.20 C 230.06 253.90 219.50 251.48 208.84 249.84 C 222.15 231.88 242.26 220.72 262.61 212.54 C 276.06 206.50 291.06 206.58 305.02 202.37 C 305.01 194.72 305.06 187.07 305.20 179.42 Z" />
<path fill="#ffffff" opacity="1.00" d=" M 434.15 224.16 C 440.03 217.00 448.38 212.68 456.81 209.24 C 457.10 226.23 457.02 243.23 456.98 260.23 C 443.02 259.85 429.03 258.60 415.34 255.78 C 418.68 243.82 426.20 233.46 434.15 224.16 Z" />
<path fill="#ffffff" opacity="1.00" d=" M 469.13 209.18 C 489.93 215.38 503.64 234.84 511.25 254.20 C 508.48 256.57 504.54 256.70 501.18 257.36 C 490.64 258.96 479.99 259.82 469.33 259.92 C 468.85 243.01 468.86 226.09 469.13 209.18 Z" />
<path fill="#ffffff" opacity="1.00" d=" M 410.72 218.73 C 416.65 216.10 422.62 213.11 429.14 212.30 C 418.21 224.44 408.82 238.03 402.88 253.32 C 393.87 250.58 384.84 247.74 376.31 243.74 C 385.45 232.63 398.17 225.35 410.72 218.73 Z" />
<path fill="#ffffff" opacity="1.00" d=" M 497.64 212.61 C 517.78 217.53 536.46 228.64 550.49 243.89 C 541.64 247.31 532.35 249.38 523.06 251.17 C 516.52 237.09 507.16 224.76 497.64 212.61 Z" />
<path fill="#ffffff" opacity="1.00" d=" M 366.39 253.66 C 377.16 256.66 387.42 261.27 398.27 264.05 C 392.65 283.97 390.01 304.52 388.84 325.14 C 372.48 324.97 356.11 326.09 339.77 325.12 C 340.33 299.06 351.05 274.38 366.39 253.66 Z" />
<path fill="#ffffff" opacity="1.00" d=" M 539.45 260.54 C 571.28 256.64 604.06 276.50 615.68 306.31 C 621.17 321.41 623.18 338.51 617.88 353.95 C 609.89 381.72 584.03 403.92 554.97 406.05 C 522.92 410.62 488.12 392.57 476.07 361.97 C 462.34 331.60 473.73 292.89 501.11 274.16 C 512.08 265.66 525.76 261.64 539.45 260.54 M 530.16 295.08 C 530.30 299.01 531.52 302.80 532.67 306.53 C 523.90 307.00 515.10 307.15 506.43 308.56 C 500.88 311.07 500.71 319.96 506.32 322.57 C 521.69 323.71 537.15 322.73 552.56 323.15 C 550.10 330.32 546.64 337.18 541.58 342.88 C 536.11 336.13 531.52 327.81 522.79 324.90 C 521.36 326.55 518.49 329.84 517.06 331.48 C 519.67 339.83 525.72 346.34 530.29 353.62 C 522.49 357.01 514.45 359.80 506.45 362.66 C 503.14 363.99 503.93 369.03 504.35 371.60 C 505.49 376.29 511.27 378.22 515.52 376.37 C 525.40 374.35 534.04 368.71 542.77 363.93 C 550.70 368.86 559.04 373.50 568.16 375.82 C 572.52 376.72 578.60 377.74 580.94 372.90 C 583.93 369.17 582.73 362.76 577.87 361.35 C 570.16 359.25 562.56 356.76 555.53 352.90 C 561.67 343.62 567.21 333.84 569.85 322.92 C 573.86 321.38 580.15 323.05 582.65 318.65 C 585.12 314.73 582.65 309.06 578.34 307.79 C 569.65 306.42 560.60 307.75 552.03 305.95 C 547.33 301.77 547.24 293.74 541.05 290.93 C 537.37 288.42 530.65 290.24 530.16 295.08 Z" />
<path fill="#ffffff" opacity="1.00" d=" M 109.27 311.26 C 132.93 278.44 175.20 261.98 214.96 266.06 C 252.87 268.62 289.58 290.58 307.64 324.36 C 322.56 353.47 321.74 390.77 302.95 417.97 C 275.78 458.47 221.80 476.44 175.16 464.13 C 166.43 472.01 157.48 480.20 146.24 484.31 C 138.52 487.58 130.27 489.28 121.94 489.82 C 125.21 479.62 130.45 469.87 130.97 458.97 C 130.85 453.13 134.19 445.00 127.89 441.13 C 115.29 430.79 104.70 417.87 98.11 402.90 C 85.66 373.28 88.39 336.44 109.27 311.26 M 181.45 321.48 C 175.81 323.72 173.92 331.38 176.44 336.56 C 178.25 338.59 180.96 339.41 183.29 340.67 C 174.71 357.07 168.69 374.60 163.54 392.33 C 161.98 397.14 160.95 403.37 164.38 407.64 C 168.39 410.94 174.72 413.60 179.70 410.70 C 185.34 406.24 183.31 397.18 188.25 392.35 C 197.16 391.60 206.41 390.83 215.24 391.91 C 218.79 396.22 218.46 402.80 221.47 407.61 C 224.39 413.44 232.62 411.35 237.65 409.61 C 246.88 404.67 240.59 394.36 239.07 386.98 C 232.10 366.37 226.86 344.53 214.85 326.15 C 205.17 319.54 192.55 320.45 181.45 321.48 Z" />
<path fill="#ffffff" opacity="1.00" d=" M 409.83 266.85 C 425.31 269.71 440.94 271.61 456.67 272.36 C 457.30 289.78 456.50 307.25 457.75 324.66 C 439.25 325.22 420.73 324.70 402.24 325.65 C 401.51 325.03 400.79 324.41 400.08 323.79 C 401.52 304.54 404.08 285.35 409.83 266.85 Z" />
<path fill="#ffffff" opacity="1.00" d=" M 469.08 272.41 C 474.58 272.01 480.09 271.61 485.60 271.32 C 480.69 277.94 475.71 284.53 470.23 290.70 C 469.58 284.62 469.30 278.51 469.08 272.41 Z" />
<path fill="#ffffff" opacity="1.00" d=" M 339.81 337.71 C 356.11 337.26 372.42 338.11 388.73 337.64 C 389.46 358.14 392.40 378.68 398.86 398.19 C 388.17 401.52 377.60 405.17 367.16 409.21 C 350.50 389.16 341.24 363.65 339.81 337.71 Z" />
<path fill="#ffffff" opacity="1.00" d=" M 402.21 337.18 C 420.01 338.16 437.83 335.95 455.62 337.27 C 455.89 337.55 456.43 338.10 456.70 338.37 C 457.60 355.49 456.83 372.65 456.96 389.80 C 441.43 390.52 425.95 392.34 410.86 396.16 C 404.50 377.80 401.62 358.54 400.23 339.23 C 400.89 338.54 401.55 337.86 402.21 337.18 Z" />
<path fill="#ffffff" opacity="1.00" d=" M 192.01 372.68 C 194.52 363.37 196.88 353.82 201.69 345.38 C 205.47 354.12 208.39 363.22 209.95 372.63 C 203.97 372.72 197.99 372.76 192.01 372.68 Z" />
<path fill="#ffffff" opacity="1.00" d=" M 469.81 375.40 C 473.53 380.17 477.02 385.13 480.24 390.26 C 476.55 390.22 472.85 389.97 469.17 389.75 C 469.31 384.95 469.35 380.17 469.81 375.40 Z" />
<path fill="#ffffff" opacity="1.00" d=" M 414.80 407.59 C 428.43 403.88 442.59 402.62 456.66 402.09 C 457.13 419.17 456.88 436.26 457.47 453.34 C 449.17 451.81 442.04 446.68 436.19 440.81 C 426.39 431.72 420.68 419.35 414.80 407.59 Z" />
<path fill="#ffffff" opacity="1.00" d=" M 469.67 401.79 C 482.97 402.83 498.46 401.44 509.03 411.18 C 507.09 419.30 501.52 426.13 497.01 433.00 C 489.81 441.73 481.13 451.10 469.48 453.25 C 468.89 436.12 468.37 418.90 469.67 401.79 Z" />
<path fill="#ffffff" opacity="1.00" d=" M 376.25 418.73 C 384.75 414.16 394.21 411.75 403.61 409.78 C 406.49 416.29 409.00 423.05 413.02 428.99 C 417.48 436.53 424.11 442.51 428.53 450.07 C 408.59 444.87 390.48 433.53 376.25 418.73 Z" />
<path fill="#ffffff" opacity="1.00" d=" M 520.79 415.23 C 530.26 416.97 539.84 418.12 549.39 419.29 C 542.13 427.34 532.97 433.26 523.72 438.74 C 515.84 443.31 507.46 447.26 498.52 449.19 C 506.34 438.14 515.22 427.70 520.79 415.23 Z" />
<path fill="#ffffff" opacity="1.00" d=" M 345.02 477.96 C 367.39 476.38 389.14 468.61 407.84 456.25 C 417.69 460.86 428.51 462.58 438.71 466.19 C 425.38 481.22 406.86 490.63 388.13 497.21 C 365.21 505.09 340.48 506.83 316.53 503.57 C 292.56 499.55 268.00 491.84 249.59 475.31 C 259.17 470.79 268.81 466.34 277.97 460.99 C 298.23 472.55 321.51 479.64 345.02 477.96 Z" />
</g>
</svg>
